<mxfile host="Electron" agent="Mozilla/5.0 (Macintosh; Intel Mac OS X 10_15_7) AppleWebKit/537.36 (KHTML, like Gecko) draw.io/24.7.17 Chrome/128.0.6613.36 Electron/32.0.1 Safari/537.36" version="24.7.17">
  <diagram name="PÃ¡gina-1" id="YL2GDuy_sF_SPvMYoH3m">
    <mxGraphModel dx="1050" dy="692" grid="1" gridSize="10" guides="1" tooltips="1" connect="1" arrows="1" fold="1" page="1" pageScale="1" pageWidth="827" pageHeight="1169" math="0" shadow="0">
      <root>
        <mxCell id="0" />
        <mxCell id="1" parent="0" />
        <mxCell id="2r0-Z1XHk9Sr5_0zl3u2-10" style="edgeStyle=orthogonalEdgeStyle;rounded=0;orthogonalLoop=1;jettySize=auto;html=1;entryX=0.5;entryY=0;entryDx=0;entryDy=0;" edge="1" parent="1" source="2r0-Z1XHk9Sr5_0zl3u2-1" target="2r0-Z1XHk9Sr5_0zl3u2-2">
          <mxGeometry relative="1" as="geometry" />
        </mxCell>
        <mxCell id="2r0-Z1XHk9Sr5_0zl3u2-1" value="Runner" style="rounded=1;whiteSpace=wrap;html=1;" vertex="1" parent="1">
          <mxGeometry x="140" y="80" width="120" height="60" as="geometry" />
        </mxCell>
        <mxCell id="2r0-Z1XHk9Sr5_0zl3u2-5" style="edgeStyle=orthogonalEdgeStyle;rounded=0;orthogonalLoop=1;jettySize=auto;html=1;" edge="1" parent="1" source="2r0-Z1XHk9Sr5_0zl3u2-2" target="2r0-Z1XHk9Sr5_0zl3u2-4">
          <mxGeometry relative="1" as="geometry" />
        </mxCell>
        <mxCell id="2r0-Z1XHk9Sr5_0zl3u2-2" value="feature" style="rounded=1;whiteSpace=wrap;html=1;" vertex="1" parent="1">
          <mxGeometry x="140" y="200" width="120" height="60" as="geometry" />
        </mxCell>
        <mxCell id="2r0-Z1XHk9Sr5_0zl3u2-7" value="" style="edgeStyle=orthogonalEdgeStyle;rounded=0;orthogonalLoop=1;jettySize=auto;html=1;" edge="1" parent="1" source="2r0-Z1XHk9Sr5_0zl3u2-4" target="2r0-Z1XHk9Sr5_0zl3u2-6">
          <mxGeometry relative="1" as="geometry" />
        </mxCell>
        <mxCell id="2r0-Z1XHk9Sr5_0zl3u2-4" value="Definitios" style="rounded=1;whiteSpace=wrap;html=1;" vertex="1" parent="1">
          <mxGeometry x="360" y="200" width="120" height="60" as="geometry" />
        </mxCell>
        <mxCell id="2r0-Z1XHk9Sr5_0zl3u2-9" value="" style="edgeStyle=orthogonalEdgeStyle;rounded=0;orthogonalLoop=1;jettySize=auto;html=1;" edge="1" parent="1" source="2r0-Z1XHk9Sr5_0zl3u2-6" target="2r0-Z1XHk9Sr5_0zl3u2-8">
          <mxGeometry relative="1" as="geometry" />
        </mxCell>
        <mxCell id="2r0-Z1XHk9Sr5_0zl3u2-6" value="Step" style="whiteSpace=wrap;html=1;rounded=1;" vertex="1" parent="1">
          <mxGeometry x="360" y="360" width="120" height="60" as="geometry" />
        </mxCell>
        <mxCell id="2r0-Z1XHk9Sr5_0zl3u2-8" value="Page" style="whiteSpace=wrap;html=1;rounded=1;" vertex="1" parent="1">
          <mxGeometry x="140" y="360" width="120" height="60" as="geometry" />
        </mxCell>
        <mxCell id="2r0-Z1XHk9Sr5_0zl3u2-11" value="Principal" style="text;html=1;align=center;verticalAlign=middle;whiteSpace=wrap;rounded=0;" vertex="1" parent="1">
          <mxGeometry x="140" y="460" width="60" height="30" as="geometry" />
        </mxCell>
        <mxCell id="2r0-Z1XHk9Sr5_0zl3u2-12" value="Validacion" style="text;html=1;align=center;verticalAlign=middle;whiteSpace=wrap;rounded=0;" vertex="1" parent="1">
          <mxGeometry x="140" y="490" width="60" height="30" as="geometry" />
        </mxCell>
        <mxCell id="2r0-Z1XHk9Sr5_0zl3u2-13" value="Principal" style="text;html=1;align=center;verticalAlign=middle;whiteSpace=wrap;rounded=0;" vertex="1" parent="1">
          <mxGeometry x="390" y="460" width="60" height="30" as="geometry" />
        </mxCell>
        <mxCell id="2r0-Z1XHk9Sr5_0zl3u2-14" value="Validacion" style="text;html=1;align=center;verticalAlign=middle;whiteSpace=wrap;rounded=0;" vertex="1" parent="1">
          <mxGeometry x="390" y="490" width="60" height="30" as="geometry" />
        </mxCell>
      </root>
    </mxGraphModel>
  </diagram>
</mxfile>
